HIERARCHY
ROOT hips
{
	OFFSET -0.003675 0.299928 -0.021708
	CHANNELS 6 Xposition Yposition Zposition Xrotation Yrotation Zrotation
	JOINT LowerBack
	{
		OFFSET 0.000919 0.177588 0.009275
		CHANNELS 3 Xrotation Yrotation Zrotation
		JOINT spine
		{
			OFFSET 0.000919 0.177588 0.009275
			CHANNELS 3 Xrotation Yrotation Zrotation
			JOINT chest
			{
				OFFSET 0.000456 0.100015 0.004638
				CHANNELS 3 Xrotation Yrotation Zrotation
				JOINT neck
				{
					OFFSET 0.000456 0.100015 0.004638
					CHANNELS 3 Xrotation Yrotation Zrotation
					JOINT head
					{
						OFFSET 0.000924 0.155147 0.009274
						CHANNELS 6 Xposition Yposition Zposition Xrotation Yrotation Zrotation
						End Site
						{
							OFFSET 0.000000 0.153400 0.000000
						}
					}
				}
				JOINT shoulder.L
				{
					OFFSET 0.019937 0.078966 0.057518
					CHANNELS 6 Xposition Yposition Zposition Yrotation Xrotation Zrotation
					JOINT upper_arm.L
					{
						OFFSET 0.177024 -0.020465 -0.095062
						CHANNELS 6 Xposition Yposition Zposition Xrotation Yrotation Zrotation
						JOINT forearm.L
						{
							OFFSET 0.247100 -0.135500 -0.061800
							CHANNELS 3 Xrotation Yrotation Zrotation
							JOINT hand.L
							{
								OFFSET 0.217000 -0.143000 0.039300
								CHANNELS 3 Xrotation Yrotation Zrotation
								JOINT palm.01.L
								{
									OFFSET 0.021770 -0.038291 0.012954
									CHANNELS 6 Xposition Yposition Zposition Yrotation Xrotation Zrotation
									JOINT f_index.01.L
									{
										OFFSET 0.053215 -0.044137 0.008236
										CHANNELS 3 Xrotation Yrotation Zrotation
										JOINT f_index.02.L
										{
											OFFSET 0.036108 -0.024723 -0.010656
											CHANNELS 3 Xrotation Yrotation Zrotation
											JOINT f_index.03.L
											{
												OFFSET 0.021342 -0.014948 -0.010846
												CHANNELS 3 Xrotation Yrotation Zrotation
												End Site
												{
													OFFSET 0.015600 -0.009860 -0.013421
												}
											}
										}
									}
									JOINT thumb.01.L
									{
										OFFSET -0.009090 -0.002348 -0.024223
										CHANNELS 6 Xposition Yposition Zposition Xrotation Yrotation Zrotation
										JOINT thumb.02.L
										{
											OFFSET 0.019713 -0.035076 -0.011120
											CHANNELS 3 Xrotation Yrotation Zrotation
											JOINT thumb.03.L
											{
												OFFSET 0.024877 -0.021748 -0.005176
												CHANNELS 3 Xrotation Yrotation Zrotation
												End Site
												{
													OFFSET 0.016125 -0.013029 -0.001569
												}
											}
										}
									}
								}
								JOINT palm.02.L
								{
									OFFSET 0.032823 -0.025104 0.012281
									CHANNELS 6 Xposition Yposition Zposition Yrotation Xrotation Zrotation
									JOINT f_middle.01.L
									{
										OFFSET 0.055723 -0.038469 0.008037
										CHANNELS 3 Xrotation Yrotation Zrotation
										JOINT f_middle.02.L
										{
											OFFSET 0.038167 -0.027473 -0.015582
											CHANNELS 3 Xrotation Yrotation Zrotation
											JOINT f_middle.03.L
											{
												OFFSET 0.021707 -0.016587 -0.017037
												CHANNELS 3 Xrotation Yrotation Zrotation
												End Site
												{
													OFFSET 0.014112 -0.010584 -0.014294
												}
											}
										}
									}
								}
								JOINT palm.03.L
								{
									OFFSET 0.039230 -0.011402 0.008390
									CHANNELS 6 Xposition Yposition Zposition Yrotation Xrotation Zrotation
									JOINT f_ring.01.L
									{
										OFFSET 0.061796 -0.031470 0.007910
										CHANNELS 3 Xrotation Yrotation Zrotation
										JOINT f_ring.02.L
										{
											OFFSET 0.033092 -0.023401 -0.019127
											CHANNELS 3 Xrotation Yrotation Zrotation
											JOINT f_ring.03.L
											{
												OFFSET 0.021392 -0.015362 -0.017824
												CHANNELS 3 Xrotation Yrotation Zrotation
												End Site
												{
													OFFSET 0.008670 -0.007297 -0.014686
												}
											}
										}
									}
								}
								JOINT palm.04.L
								{
									OFFSET 0.043417 0.002450 0.002889
									CHANNELS 6 Xposition Yposition Zposition Yrotation Xrotation Zrotation
									JOINT f_pinky.01.L
									{
										OFFSET 0.069986 -0.026156 0.003627
										CHANNELS 3 Xrotation Yrotation Zrotation
										JOINT f_pinky.02.L
										{
											OFFSET 0.018520 -0.012813 -0.016429
											CHANNELS 3 Xrotation Yrotation Zrotation
											JOINT f_pinky.03.L
											{
												OFFSET 0.013822 -0.009796 -0.014947
												CHANNELS 3 Xrotation Yrotation Zrotation
												End Site
												{
													OFFSET 0.007238 -0.006103 -0.011657
												}
											}
										}
									}
								}
							}
						}
					}
				}
				JOINT shoulder.R
				{
					OFFSET -0.016662 0.078957 0.057696
					CHANNELS 6 Xposition Yposition Zposition Yrotation Xrotation Zrotation
					JOINT upper_arm.R
					{
						OFFSET -0.176972 -0.020537 -0.095144
						CHANNELS 6 Xposition Yposition Zposition Xrotation Yrotation Zrotation
						JOINT forearm.R
						{
							OFFSET -0.247100 -0.135500 -0.061800
							CHANNELS 3 Xrotation Yrotation Zrotation
							JOINT hand.R
							{
								OFFSET -0.217000 -0.143000 0.039300
								CHANNELS 3 Xrotation Yrotation Zrotation
								JOINT palm.01.R
								{
									OFFSET -0.021773 -0.038278 0.012988
									CHANNELS 6 Xposition Yposition Zposition Yrotation Xrotation Zrotation
									JOINT f_index.01.R
									{
										OFFSET -0.053212 -0.044139 0.008249
										CHANNELS 3 Xrotation Yrotation Zrotation
										JOINT f_index.02.R
										{
											OFFSET -0.036049 -0.024835 -0.010634
											CHANNELS 3 Xrotation Yrotation Zrotation
											JOINT f_index.03.R
											{
												OFFSET -0.021371 -0.014881 -0.010866
												CHANNELS 3 Xrotation Yrotation Zrotation
												End Site
												{
													OFFSET -0.015584 -0.009883 -0.013422
												}
											}
										}
									}
									JOINT thumb.01.R
									{
										OFFSET 0.009113 -0.002381 -0.024211
										CHANNELS 6 Xposition Yposition Zposition Xrotation Yrotation Zrotation
										JOINT thumb.02.R
										{
											OFFSET -0.019694 -0.035097 -0.011088
											CHANNELS 3 Xrotation Yrotation Zrotation
											JOINT thumb.03.R
											{
												OFFSET -0.024867 -0.021762 -0.005168
												CHANNELS 3 Xrotation Yrotation Zrotation
												End Site
												{
													OFFSET -0.016120 -0.013036 -0.001565
												}
											}
										}
									}
								}
								JOINT palm.02.R
								{
									OFFSET -0.032828 -0.025095 0.012286
									CHANNELS 6 Xposition Yposition Zposition Yrotation Xrotation Zrotation
									JOINT f_middle.01.R
									{
										OFFSET -0.055721 -0.038472 0.008040
										CHANNELS 3 Xrotation Yrotation Zrotation
										JOINT f_middle.02.R
										{
											OFFSET -0.038101 -0.027593 -0.015557
											CHANNELS 3 Xrotation Yrotation Zrotation
											JOINT f_middle.03.R
											{
												OFFSET -0.021730 -0.016530 -0.017054
												CHANNELS 3 Xrotation Yrotation Zrotation
												End Site
												{
													OFFSET -0.014096 -0.010608 -0.014293
												}
											}
										}
									}
								}
								JOINT palm.03.R
								{
									OFFSET -0.039192 -0.011488 0.008390
									CHANNELS 6 Xposition Yposition Zposition Yrotation Xrotation Zrotation
									JOINT f_ring.01.R
									{
										OFFSET -0.061839 -0.031387 0.007876
										CHANNELS 3 Xrotation Yrotation Zrotation
										JOINT f_ring.02.R
										{
											OFFSET -0.033068 -0.023437 -0.019125
											CHANNELS 3 Xrotation Yrotation Zrotation
											JOINT f_ring.03.R
											{
												OFFSET -0.021371 -0.015393 -0.017822
												CHANNELS 3 Xrotation Yrotation Zrotation
												End Site
												{
													OFFSET -0.008654 -0.007321 -0.014684
												}
											}
										}
									}
								}
								JOINT palm.04.R
								{
									OFFSET -0.043421 0.002443 0.002845
									CHANNELS 6 Xposition Yposition Zposition Yrotation Xrotation Zrotation
									JOINT f_pinky.01.R
									{
										OFFSET -0.069983 -0.026169 0.003599
										CHANNELS 3 Xrotation Yrotation Zrotation
										JOINT f_pinky.02.R
										{
											OFFSET -0.018501 -0.012842 -0.016428
											CHANNELS 3 Xrotation Yrotation Zrotation
											JOINT f_pinky.03.R
											{
												OFFSET -0.013806 -0.009821 -0.014946
												CHANNELS 3 Xrotation Yrotation Zrotation
												End Site
												{
													OFFSET -0.007226 -0.006121 -0.011655
												}
											}
										}
									}
								}
							}
						}
					}
				}
			}
		}
	}
	JOINT pelvis.L
	{
		OFFSET 0.000000 0.000000 0.000000
		CHANNELS 6 Xposition Yposition Zposition Xrotation Yrotation Zrotation
		JOINT thigh.L
		{
			OFFSET 0.101675 0.001054 -0.000000
			CHANNELS 3 Xrotation Yrotation Zrotation
			JOINT shin.L
			{
				OFFSET 0.000000 -0.534800 0.041000
				CHANNELS 3 Xrotation Yrotation Zrotation
				JOINT foot.L
				{
					OFFSET 0.000000 -0.452000 -0.044800
					CHANNELS 3 Xrotation Yrotation Zrotation
					JOINT toe.L
					{
						OFFSET -0.000000 -0.068500 0.109600
						CHANNELS 3 Xrotation Yrotation Zrotation
						End Site
						{
							OFFSET -0.000000 0.000000 0.067200
						}
					}
				}
				JOINT heel.L
				{
					OFFSET 0.000000 -0.452000 -0.044800
					CHANNELS 3 Xrotation Yrotation Zrotation
					JOINT heel.02.L
					{
						OFFSET -0.038000 -0.085200 0.016200
						CHANNELS 6 Xposition Yposition Zposition Xrotation Yrotation Zrotation
						End Site
						{
							OFFSET 0.080000 -0.000000 0.000000
						}
					}
				}
			}
		}
	}
	JOINT pelvis.R
	{
		OFFSET 0.000000 0.000000 0.000000
		CHANNELS 6 Xposition Yposition Zposition Xrotation Yrotation Zrotation
		JOINT thigh.R
		{
			OFFSET -0.094325 0.001054 0.000000
			CHANNELS 3 Xrotation Yrotation Zrotation
			JOINT shin.R
			{
				OFFSET 0.000000 -0.534800 0.041000
				CHANNELS 3 Xrotation Yrotation Zrotation
				JOINT foot.R
				{
					OFFSET 0.000000 -0.452000 -0.044800
					CHANNELS 3 Xrotation Yrotation Zrotation
					JOINT toe.R
					{
						OFFSET -0.000000 -0.068500 0.109600
						CHANNELS 3 Xrotation Yrotation Zrotation
						End Site
						{
							OFFSET -0.000000 0.000000 0.067200
						}
					}
				}
				JOINT heel.R
				{
					OFFSET 0.000000 -0.452000 -0.044800
					CHANNELS 3 Xrotation Yrotation Zrotation
					JOINT heel.02.R
					{
						OFFSET 0.038000 -0.085200 0.016200
						CHANNELS 6 Xposition Yposition Zposition Xrotation Yrotation Zrotation
						End Site
						{
							OFFSET -0.080000 0.000000 -0.000000
						}
					}
				}
			}
		}
	}
}
MOTION
Frames: 4
Frame Time: 0.041667
-0.011774 0.206833 -0.002523 -14.266699 13.627870 92.671508 -0.000002 0.000002 -0.000000 -0.000002 0.000000 0.000000 -0.000001 0.000000 -0.000001 0.000001 0.000000 -0.000000 0.000924 0.155148 0.009274 -13.130240 0.041428 -14.882434 0.019937 0.078966 0.057518 -9.260052 3.253588 44.719035 0.177024 -0.020465 -0.095062 -17.658165 5.034001 -26.326843 -4.227447 -9.245792 10.352564 -0.000001 0.000001 -0.000002 0.021770 -0.038291 0.012954 0.000001 0.000000 0.000001 -0.000000 -0.000000 0.000001 -0.000002 -0.000002 0.000006 0.000001 0.000003 -0.000001 -0.009090 -0.002348 -0.024224 -0.000001 0.000001 -0.000001 0.000000 -0.000001 0.000005 0.000000 0.000001 -0.000002 0.032823 -0.025104 0.012281 0.000003 0.000003 0.000007 -0.000002 0.000000 -0.000005 -0.000004 -0.000005 0.000003 -0.000002 -0.000003 -0.000002 0.039230 -0.011402 0.008390 0.000001 0.000001 0.000006 0.000001 -0.000000 -0.000002 -0.000002 0.000003 0.000003 0.000002 -0.000001 -0.000001 0.043417 0.002450 0.002889 0.000001 0.000002 -0.000000 -0.000001 -0.000005 -0.000000 -0.000000 0.000002 0.000000 -0.000002 -0.000003 0.000001 -0.016662 0.078957 0.057696 -19.240660 5.072412 -34.022535 -0.176972 -0.020537 -0.095144 -14.722544 2.543917 11.314686 1.084251 -3.011130 -18.860246 -0.000002 0.000000 -0.000002 -0.021773 -0.038278 0.012988 0.000001 0.000001 -0.000003 -0.000003 0.000003 -0.000001 -0.000000 -0.000000 -0.000001 0.000001 -0.000001 0.000004 0.009114 -0.002381 -0.024211 0.000001 -0.000003 0.000000 -0.000002 0.000000 0.000004 0.000000 -0.000001 -0.000001 -0.032828 -0.025095 0.012286 0.000001 -0.000000 0.000001 0.000002 0.000003 0.000001 0.000001 0.000000 -0.000002 -0.000004 0.000003 -0.000002 -0.039192 -0.011488 0.008390 0.000001 0.000002 -0.000000 0.000002 -0.000000 0.000000 0.000004 -0.000001 0.000003 -0.000001 0.000002 0.000001 -0.043421 0.002443 0.002845 0.000000 0.000000 -0.000003 -0.000003 0.000003 -0.000001 -0.000002 0.000000 0.000000 0.000001 -0.000001 0.000004 -0.000000 0.000000 -0.000000 -2.235936 -0.218711 1.430041 31.156403 0.198547 1.022531 26.561776 -1.320056 13.445692 -0.000002 -0.000001 -0.000000 -0.000003 0.000000 0.000000 -0.000002 -0.000001 -0.000000 -0.038000 -0.085200 0.016200 -0.000002 -0.000000 0.000000 -0.000000 0.000000 -0.000000 -2.195883 -0.217296 2.664384 -13.038685 0.056209 -0.601994 28.280081 -0.472095 4.769244 0.000000 0.000001 -0.000001 -0.000003 0.000002 0.000000 0.000007 0.000001 0.000000 0.038000 -0.085200 0.016200 -0.000001 -0.000000 -0.000000 
-0.012133 0.206182 -0.002912 -12.608774 13.797755 92.345899 0.000002 -0.000001 -0.000000 -0.000002 -0.000001 0.000001 -0.000002 -0.000000 0.000000 0.000001 -0.000000 0.000000 0.000924 0.155148 0.009274 -12.876960 0.041812 -13.983015 0.019937 0.078966 0.057518 -8.433551 3.158416 44.631857 0.177024 -0.020465 -0.095062 -15.256160 5.480061 -23.663120 -3.172856 -6.976577 9.914098 -0.000001 -0.000000 0.000001 0.021770 -0.038291 0.012954 0.000001 -0.000001 -0.000004 0.000000 -0.000001 0.000007 -0.000000 -0.000003 0.000005 0.000000 0.000004 0.000003 -0.009090 -0.002348 -0.024224 -0.000000 0.000000 0.000003 0.000000 -0.000000 0.000001 -0.000000 0.000001 -0.000002 0.032823 -0.025104 0.012281 -0.000001 -0.000000 0.000002 -0.000001 0.000001 -0.000003 -0.000003 -0.000003 0.000001 -0.000000 0.000003 0.000003 0.039230 -0.011402 0.008390 0.000003 -0.000001 -0.000001 -0.000002 0.000000 -0.000000 0.000000 0.000001 0.000003 0.000006 0.000002 0.000002 0.043417 0.002450 0.002889 -0.000001 -0.000001 -0.000005 0.000000 -0.000004 -0.000002 -0.000000 -0.000003 -0.000000 0.000001 0.000003 0.000000 -0.016662 0.078957 0.057696 -18.735696 4.819169 -33.810785 -0.176972 -0.020537 -0.095144 -14.632224 3.293971 9.946834 0.716785 -1.756393 -21.812281 0.000001 0.000000 -0.000002 -0.021773 -0.038278 0.012988 -0.000000 0.000000 0.000000 -0.000001 0.000004 -0.000001 -0.000000 0.000002 -0.000009 -0.000000 0.000000 0.000001 0.009113 -0.002381 -0.024212 -0.000000 -0.000001 -0.000001 -0.000001 -0.000000 0.000000 0.000001 -0.000000 -0.000004 -0.032828 -0.025095 0.012286 0.000000 0.000000 0.000001 0.000000 0.000000 -0.000004 0.000003 -0.000002 0.000001 -0.000002 0.000003 -0.000004 -0.039192 -0.011488 0.008390 0.000001 0.000001 0.000003 -0.000001 0.000002 0.000002 0.000003 -0.000006 -0.000000 -0.000002 -0.000001 -0.000003 -0.043421 0.002443 0.002845 -0.000001 0.000001 -0.000003 -0.000003 0.000002 -0.000001 0.000003 -0.000006 -0.000001 -0.000003 0.000001 0.000002 0.000000 0.000000 -0.000000 -2.255335 -0.175351 0.950566 30.467531 0.188448 0.919010 28.595752 -1.180975 12.006387 -0.000003 0.000000 0.000000 -0.000000 -0.000001 -0.000000 0.000002 0.000000 0.000000 -0.038000 -0.085200 0.016200 -0.000002 0.000000 0.000000 0.000000 0.000000 -0.000000 -2.213349 -0.174214 2.184885 -15.310424 0.144536 0.380290 31.399718 -0.361020 3.645489 0.000000 0.000000 0.000001 -0.000001 -0.000000 0.000000 0.000005 0.000000 -0.000000 0.038000 -0.085200 0.016200 0.000001 0.000000 0.000001 
-0.014932 0.205780 -0.006629 -16.851349 12.022985 92.000927 -0.000000 0.000002 -0.000000 -0.000002 0.000001 -0.000000 -0.000000 -0.000001 -0.000000 0.000000 -0.000003 -0.000000 0.000924 0.155148 0.009274 -8.369190 0.020720 -17.109904 0.019937 0.078966 0.057518 -6.199846 3.694176 47.895424 0.177024 -0.020465 -0.095062 -18.791360 -3.949460 -12.867244 2.564100 7.150718 18.121433 -0.000000 0.000001 0.000001 0.021770 -0.038291 0.012954 -0.000001 -0.000001 0.000001 -0.000001 -0.000002 -0.000000 -0.000000 0.000001 0.000007 -0.000000 0.000003 -0.000005 -0.009090 -0.002348 -0.024223 -0.000001 -0.000002 0.000003 0.000001 -0.000000 0.000001 -0.000001 0.000000 0.000003 0.032823 -0.025104 0.012281 -0.000001 -0.000000 0.000004 -0.000000 0.000001 -0.000003 -0.000002 -0.000001 -0.000000 -0.000001 -0.000003 -0.000003 0.039230 -0.011402 0.008390 -0.000000 -0.000000 0.000004 -0.000001 -0.000002 0.000003 -0.000002 0.000002 0.000003 0.000000 -0.000002 0.000003 0.043417 0.002450 0.002889 -0.000001 0.000001 -0.000000 -0.000003 -0.000002 0.000001 0.000001 -0.000002 -0.000005 0.000002 -0.000004 -0.000005 -0.016662 0.078956 0.057696 -19.098203 4.285429 -31.715628 -0.176972 -0.020537 -0.095144 -13.986300 0.126976 13.585324 1.051137 -4.396282 -31.525052 0.000001 0.000001 0.000004 -0.021773 -0.038278 0.012988 -0.000001 -0.000001 -0.000005 -0.000001 0.000001 0.000001 -0.000000 -0.000002 -0.000001 -0.000000 0.000002 0.000002 0.009113 -0.002381 -0.024212 0.000000 -0.000000 0.000002 0.000001 -0.000001 -0.000001 0.000000 -0.000000 -0.000003 -0.032828 -0.025095 0.012286 -0.000000 -0.000000 -0.000006 -0.000000 0.000001 0.000002 0.000002 0.000002 -0.000004 -0.000002 0.000006 -0.000003 -0.039192 -0.011488 0.008390 -0.000000 0.000000 0.000001 -0.000001 0.000001 -0.000003 -0.000002 0.000003 0.000000 -0.000004 0.000006 0.000003 -0.043421 0.002443 0.002845 -0.000001 -0.000001 -0.000001 -0.000004 0.000000 0.000001 -0.000006 0.000001 0.000006 -0.000001 -0.000003 -0.000002 0.000000 0.000000 -0.000000 -2.294717 -0.139139 0.547690 25.173284 0.539132 5.788482 39.714811 -1.492566 15.243341 -0.000002 0.000001 0.000000 -0.000003 -0.000001 0.000000 0.000003 -0.000000 -0.000000 -0.038000 -0.085200 0.016200 -0.000001 -0.000000 -0.000000 0.000000 0.000000 0.000000 -2.250632 -0.138259 1.781988 -27.497201 0.090634 -1.177825 42.243450 -0.511815 5.171952 0.000002 0.000001 0.000001 0.000004 -0.000002 0.000000 0.000003 0.000000 0.000001 0.038000 -0.085200 0.016200 0.000003 -0.000002 -0.000000 
-0.015133 0.205144 -0.006967 -17.756945 11.224662 92.076032 -0.000000 0.000002 -0.000000 0.000001 0.000001 -0.000000 -0.000000 0.000001 -0.000000 0.000000 0.000000 -0.000000 0.000924 0.155148 0.009274 -6.178225 0.012791 -17.319690 0.019937 0.078966 0.057518 -7.923345 3.890911 49.182239 0.177024 -0.020465 -0.095062 -18.795468 -5.115915 -11.286167 2.856451 8.638306 19.497525 -0.000000 0.000001 -0.000002 0.021770 -0.038291 0.012954 0.000000 0.000000 0.000003 -0.000002 -0.000000 0.000005 -0.000000 0.000001 0.000005 -0.000001 0.000002 0.000002 -0.009090 -0.002348 -0.024224 -0.000000 -0.000001 0.000004 -0.000002 -0.000001 0.000003 0.000000 0.000001 -0.000001 0.032823 -0.025104 0.012281 -0.000001 -0.000000 0.000009 -0.000001 -0.000001 -0.000004 -0.000003 0.000000 0.000001 0.000000 -0.000003 0.000001 0.039230 -0.011402 0.008390 0.000001 -0.000001 0.000003 -0.000001 0.000001 0.000001 -0.000001 0.000003 0.000001 0.000000 0.000005 -0.000000 0.043417 0.002450 0.002889 -0.000001 -0.000000 0.000002 -0.000003 0.000001 -0.000007 -0.000002 -0.000001 -0.000000 0.000002 0.000003 -0.000002 -0.016662 0.078957 0.057696 -20.253449 4.516008 -31.379057 -0.176972 -0.020537 -0.095144 -15.560684 0.368527 16.230222 1.103686 -4.918602 -30.564386 0.000001 -0.000000 0.000002 -0.021773 -0.038278 0.012988 0.000001 -0.000000 -0.000003 -0.000002 0.000002 0.000001 -0.000001 0.000001 -0.000001 -0.000002 0.000002 0.000002 0.009114 -0.002381 -0.024211 0.000001 -0.000000 -0.000001 -0.000002 -0.000001 0.000000 0.000000 0.000000 -0.000008 -0.032828 -0.025095 0.012286 0.000001 0.000000 -0.000004 0.000001 -0.000000 -0.000003 0.000002 0.000003 -0.000000 -0.000001 0.000003 -0.000006 -0.039192 -0.011488 0.008390 0.000001 0.000001 0.000001 -0.000002 0.000006 -0.000003 0.000001 -0.000004 -0.000000 0.000003 -0.000003 0.000001 -0.043421 0.002443 0.002845 0.000001 0.000002 -0.000005 -0.000003 0.000004 -0.000001 -0.000002 -0.000004 0.000005 -0.000004 0.000006 -0.000000 -0.000000 0.000000 -0.000000 -2.294140 -0.186472 1.059302 26.230739 0.628457 6.906382 37.492138 -1.414103 14.423964 -0.000002 -0.000000 0.000000 0.000002 -0.000001 -0.000000 0.000002 -0.000002 -0.000000 -0.038000 -0.085200 0.016200 0.000003 -0.000001 0.000000 -0.000000 0.000000 -0.000000 -2.251792 -0.185242 2.293640 -27.815351 0.028451 -1.997618 40.986948 -0.526051 5.316075 0.000000 -0.000000 -0.000001 0.000001 0.000001 -0.000000 0.000005 0.000000 0.000001 0.038000 -0.085200 0.016200 0.000004 -0.000000 -0.000001 
